<svg width="18" height="18" viewBox="0 0 18 18" fill="none" xmlns="http://www.w3.org/2000/svg">
<rect width="18" height="18" fill="#222222"/>
<path d="M8.83872 2.24854H9.54185C10.8918 2.24854 11.145 2.25979 11.7862 2.28791C12.5062 2.32166 12.9956 2.43416 13.4231 2.60291C13.8675 2.77166 14.2443 3.00791 14.6212 3.37916C14.9587 3.71666 15.2287 4.12729 15.3975 4.57729L15.4087 4.61104C15.5662 5.02729 15.6787 5.49979 15.7125 6.18604L15.7181 6.41104C15.7462 6.98479 15.7518 7.32791 15.7518 8.88604V9.40353C15.7518 10.866 15.7406 11.1192 15.7125 11.7829C15.701 12.3424 15.5945 12.8959 15.3975 13.4198C15.2287 13.8698 14.9643 14.2804 14.6212 14.6179C14.2831 14.9608 13.8742 15.2257 13.4231 15.3942L13.3893 15.4054C12.9731 15.5629 12.495 15.6754 11.8143 15.7035L11.5893 15.7148C11.0156 15.7429 10.6725 15.7485 9.11435 15.7485H8.59685C7.80351 15.7584 7.01005 15.7452 6.21747 15.7092C5.65794 15.6977 5.10443 15.5911 4.5806 15.3942C4.1306 15.2254 3.71997 14.961 3.38247 14.6179C3.03959 14.2798 2.77467 13.8709 2.60622 13.4198L2.59497 13.386C2.40915 12.8809 2.30657 12.349 2.29122 11.811L2.2856 11.6029C2.25351 10.7896 2.24225 9.97557 2.25185 9.16166V8.59916C2.25185 7.12541 2.2631 6.87791 2.29122 6.21416C2.32497 5.50541 2.43747 5.01604 2.6006 4.59416L2.60622 4.57729C2.77497 4.12729 3.03935 3.71666 3.38247 3.37916C3.72058 3.03628 4.12948 2.77136 4.5806 2.60291L4.61435 2.59166C5.11945 2.40584 5.65137 2.30326 6.18935 2.28791L6.39747 2.28229C6.97122 2.24854 7.30872 2.24854 8.83872 2.24854ZM9.3506 3.46354H8.6531C7.35935 3.46354 7.01622 3.46916 6.50997 3.49166L6.27372 3.50291C5.6156 3.53104 5.26122 3.64354 5.01935 3.73354C4.70435 3.85729 4.47935 4.00354 4.2431 4.23979C4.0181 4.47041 3.86622 4.68979 3.7481 4.99916L3.73122 5.03291C3.58743 5.42989 3.51137 5.84822 3.50622 6.27041L3.49497 6.52354C3.47247 7.02979 3.46685 7.38416 3.46685 8.73979V9.34729C3.46685 10.8323 3.4781 11.0629 3.50622 11.7267V11.766C3.53997 12.4017 3.64685 12.7448 3.74247 12.981C3.8606 13.296 4.00685 13.521 4.24872 13.7573C4.47372 13.9823 4.69872 14.1342 5.00247 14.2523L5.03622 14.2692C5.4332 14.413 5.85153 14.489 6.27372 14.4942L6.52685 14.5054C7.0331 14.5279 7.38747 14.5335 8.7431 14.5335H9.3506C10.8356 14.5335 11.0662 14.5223 11.73 14.4942H11.7693C12.1848 14.4849 12.5957 14.405 12.9843 14.2579C13.2768 14.151 13.5412 13.9767 13.7606 13.7517C13.9856 13.5267 14.1375 13.3017 14.2556 12.9979L14.2725 12.9642C14.4163 12.5672 14.4923 12.1489 14.4975 11.7267L14.5087 11.4735C14.5312 10.9673 14.5368 10.6129 14.5368 9.25728V8.64416C14.5368 7.16478 14.5256 6.93416 14.4975 6.27041V6.23104C14.4882 5.81556 14.4083 5.4047 14.2612 5.01604C14.1543 4.72354 13.98 4.45916 13.755 4.23979C13.5429 4.02168 13.2856 3.85272 13.0012 3.74479L12.9675 3.72791C12.5778 3.58587 12.1672 3.50983 11.7525 3.50291L11.4937 3.49166C10.9875 3.46916 10.65 3.46354 9.35622 3.46354H9.3506ZM9.00185 5.53354C9.92082 5.53354 10.8022 5.8986 11.452 6.54841C12.1018 7.19822 12.4668 8.07956 12.4668 8.99854C12.4668 9.91751 12.1018 10.7988 11.452 11.4487C10.8022 12.0985 9.92082 12.4635 9.00185 12.4635C8.08287 12.4635 7.20153 12.0985 6.55172 11.4487C5.90191 10.7988 5.53685 9.91751 5.53685 8.99854C5.53685 8.07956 5.90191 7.19822 6.55172 6.54841C7.20153 5.8986 8.08287 5.53354 9.00185 5.53354ZM9.00185 6.74854C8.40511 6.74854 7.83281 6.98559 7.41086 7.40754C6.9889 7.8295 6.75185 8.4018 6.75185 8.99854C6.75185 9.59527 6.9889 10.1676 7.41086 10.5895C7.83281 11.0115 8.40511 11.2485 9.00185 11.2485C9.59858 11.2485 10.1709 11.0115 10.5928 10.5895C11.0148 10.1676 11.2518 9.59527 11.2518 8.99854C11.2518 8.4018 11.0148 7.8295 10.5928 7.40754C10.1709 6.98559 9.59858 6.74854 9.00185 6.74854ZM12.6018 4.58291C12.8167 4.58291 13.0227 4.66825 13.1746 4.82015C13.3265 4.97206 13.4118 5.17808 13.4118 5.39291C13.4118 5.60774 13.3265 5.81376 13.1746 5.96567C13.0227 6.11757 12.8167 6.20291 12.6018 6.20291C12.387 6.20291 12.181 6.11757 12.0291 5.96567C11.8772 5.81376 11.7918 5.60774 11.7918 5.39291C11.7918 5.17808 11.8772 4.97206 12.0291 4.82015C12.181 4.66825 12.387 4.58291 12.6018 4.58291Z" fill="white"/>
</svg>
