<svg width="32" height="32" viewBox="0 0 32 32" fill="none" xmlns="http://www.w3.org/2000/svg">
<rect width="32" height="32" rx="16" fill="#FF385C"/>
<path d="M17.875 17.875L21.25 21.25M14.875 19C15.4167 19 15.9531 18.8933 16.4536 18.686C16.954 18.4787 17.4088 18.1749 17.7918 17.7918C18.1749 17.4088 18.4787 16.954 18.686 16.4536C18.8933 15.9531 19 15.4167 19 14.875C19 14.3333 18.8933 13.7969 18.686 13.2964C18.4787 12.796 18.1749 12.3412 17.7918 11.9582C17.4088 11.5751 16.954 11.2713 16.4536 11.064C15.9531 10.8567 15.4167 10.75 14.875 10.75C13.781 10.75 12.7318 11.1846 11.9582 11.9582C11.1846 12.7318 10.75 13.781 10.75 14.875C10.75 15.969 11.1846 17.0182 11.9582 17.7918C12.7318 18.5654 13.781 19 14.875 19Z" stroke="white" stroke-width="2"/>
</svg>
