<svg width="18" height="18" viewBox="0 0 18 18" fill="none" xmlns="http://www.w3.org/2000/svg">
<rect width="18" height="18" fill="#222222"/>
<path d="M10.1869 4.34092C9.70562 4.59892 9.32071 5.00563 9.08957 5.50035C8.85843 5.99506 8.79347 6.55126 8.90437 7.08592C7.91688 7.0424 6.95014 6.78796 6.06917 6.33971C5.1882 5.89146 4.4134 5.25979 3.79688 4.48717C3.62913 4.75487 3.5161 5.05316 3.46433 5.3648C3.41256 5.67644 3.42306 5.99525 3.49525 6.3028C3.56743 6.61036 3.69985 6.90056 3.88486 7.15663C4.06987 7.4127 4.3038 7.62956 4.57313 7.79467C4.185 7.79467 3.79687 7.72155 3.44812 7.54717C3.46177 8.11216 3.66244 8.65667 4.01871 9.09539C4.37498 9.5341 4.86671 9.84225 5.41688 9.97155C5.04975 10.0711 4.66431 10.0827 4.29188 10.0053C4.46218 10.5017 4.77818 10.9352 5.19862 11.2493C5.61907 11.5634 6.12443 11.7434 6.64875 11.7659C6.13933 12.1866 5.54673 12.4947 4.90982 12.6702C4.2729 12.8457 3.60609 12.8845 2.95312 12.784C4.04037 13.5101 5.30929 13.9171 6.61603 13.9588C7.92276 14.0005 9.21505 13.6753 10.3464 13.02C11.4777 12.3648 12.4029 11.4057 13.0169 10.2515C13.631 9.09723 13.9094 7.79406 13.8206 6.48967C14.315 6.14623 14.7326 5.70374 15.0469 5.1903C14.6033 5.40421 14.1287 5.54659 13.6406 5.61217C14.1686 5.28953 14.5668 4.79189 14.7656 4.20592C14.2762 4.48717 13.7475 4.6953 13.185 4.80217C12.8024 4.40959 12.3027 4.15183 11.761 4.06763C11.2193 3.98344 10.665 4.07737 10.1812 4.3353L10.1869 4.34092Z" fill="white"/>
</svg>
